<svg version="1.1" id="Layer_1" xmlns="http://www.w3.org/2000/svg" xmlns:xlink="http://www.w3.org/1999/xlink" x="0px" y="0px"
	 width="100%" viewBox="0 0 336 208" enable-background="new 0 0 336 208" xml:space="preserve">
<path fill="#000000" opacity="1.000000" stroke="none" 
	d="
M204.015198,194.400070 
	C189.678452,189.473984 181.594482,179.715591 179.974243,165.092957 
	C179.109085,157.285065 181.225952,149.858948 185.847458,143.431351 
	C187.415619,141.250366 187.355392,139.832382 185.880417,137.747467 
	C172.893997,119.390678 159.950378,101.002914 147.137314,82.525002 
	C145.510071,80.178314 143.902924,79.631935 141.317245,80.346970 
	C135.460373,81.966591 129.521484,82.174347 123.618744,80.611160 
	C121.033676,79.926575 119.548874,81.089584 118.194580,83.025688 
	C105.307404,101.449272 92.422203,119.874435 79.452309,138.239731 
	C77.883980,140.460480 77.763062,142.078156 79.377861,144.447052 
	C87.991783,157.083542 86.792114,174.515762 76.805893,185.059174 
	C65.141251,197.374664 49.092136,199.826721 35.128208,191.426941 
	C21.919893,183.481705 15.908360,168.691116 19.968487,154.128464 
	C23.971493,139.770691 37.248756,129.756729 52.297390,129.766220 
	C53.292133,129.766846 54.401051,129.651321 55.263420,130.030182 
	C62.246281,133.097824 65.820999,129.559555 69.570602,123.971115 
	C80.426102,107.792015 91.763824,91.931580 103.146233,76.114441 
	C105.882156,72.312569 106.249992,69.695351 103.758911,65.193039 
	C97.048370,53.064606 97.368988,40.455006 105.412392,28.909510 
	C113.526497,17.262520 127.828041,12.169667 141.089096,15.874638 
	C154.896927,19.732363 163.104706,28.922857 165.440918,43.176727 
	C166.819077,51.585220 165.014862,59.380146 160.407013,66.426147 
	C158.770752,68.928207 158.783081,70.641579 160.503433,73.066208 
	C173.226044,90.997200 185.837036,109.007698 198.412109,127.042732 
	C200.313217,129.769302 202.121460,131.193527 205.838974,130.073532 
	C210.794174,128.580658 216.059036,128.841934 221.057755,130.188522 
	C223.973206,130.973907 225.747208,130.330582 227.411774,127.944099 
	C240.276154,109.500343 253.139435,91.054878 266.180939,72.736565 
	C268.246399,69.835373 267.014099,67.971878 265.612579,65.604744 
	C251.435806,41.660233 268.629639,14.621208 293.703369,14.823690 
	C306.784363,14.929324 317.157593,20.941742 323.075531,32.972195 
	C329.000671,45.017288 328.128174,56.906052 320.020020,67.716751 
	C311.351746,79.274223 299.463593,83.014664 285.557312,80.055611 
	C282.507446,79.406639 281.007233,80.098366 279.387512,82.422287 
	C266.627106,100.730690 253.814194,119.002762 240.942429,137.233047 
	C239.267807,139.604813 239.313538,141.345047 240.922089,143.910110 
	C253.385300,163.784195 244.167145,187.906403 221.632568,194.475189 
	C215.981369,196.122498 210.152054,195.909241 204.015198,194.400070 
M37.959095,172.412079 
	C42.350685,178.736526 48.508530,180.769440 55.823009,179.396530 
	C61.937443,178.248871 67.570198,172.276459 68.511497,166.049530 
	C69.577377,158.998428 67.118317,153.329758 61.238026,149.201370 
	C55.225933,144.980438 46.614258,145.465622 40.855179,150.363205 
	C34.809742,155.504303 33.640713,163.135376 37.959095,172.412079 
M303.783997,34.639797 
	C294.577087,28.849161 284.501770,30.638872 279.368073,38.976875 
	C274.438477,46.983406 277.022797,57.340038 285.217743,62.419300 
	C291.991791,66.617882 301.601929,64.808510 306.767761,58.361893 
	C312.481293,51.231789 311.538971,42.230389 303.783997,34.639797 
M205.371826,147.720169 
	C204.427460,148.394699 203.436325,149.012970 202.546371,149.752930 
	C197.034607,154.335754 195.042953,161.624176 197.490189,168.126068 
	C200.210938,175.354691 206.233139,179.243744 214.173981,178.900253 
	C221.156296,178.598236 227.441193,173.897034 229.132904,167.107742 
	C230.657883,160.987640 229.836655,155.243546 224.800049,150.686859 
	C219.214828,145.633835 213.026489,144.304718 205.371826,147.720169 
M143.289047,60.831295 
	C149.175064,55.976959 150.372299,49.607456 148.084641,42.836266 
	C145.658737,35.655983 139.931671,31.927483 132.453873,31.793554 
	C126.061440,31.679062 120.916092,34.584240 117.822975,40.419769 
	C114.519157,46.652828 116.283073,55.750908 121.612427,60.532799 
	C127.466743,65.785728 135.371063,66.063950 143.289047,60.831295 
z"/>
</svg>